<svg width="591" height="252">
                                <g transform="translate(-861 -316)">
                                    <g>
                                        <path d="M870.428 333.221C880.05 319.48 898.99 316.14 912.731 325.762L1174.12 508.788C1187.86 518.41 1191.2 537.35 1181.58 551.091L1181.58 551.091C1171.96 564.832 1153.02 568.172 1139.27 558.55L877.887 375.524C864.146 365.902 860.806 346.963 870.428 333.221Z" fill="#000000" fill-rule="evenodd" fill-opacity="1"/>
                                        <path d="M1446.23 332.669C1455.64 346.105 1452.37 364.625 1438.93 374.033L1176.72 557.635C1163.29 567.043 1144.77 563.778 1135.36 550.341L1135.36 550.341C1125.95 536.904 1129.22 518.385 1142.65 508.977L1404.86 325.375C1418.3 315.967 1436.82 319.232 1446.23 332.669Z" fill="#000000" fill-rule="evenodd" fill-opacity="1"/>
                                    </g>
                                </g>
                            </svg>